<svg height="496pt" viewBox="0 0 496 496" width="496pt" xmlns="http://www.w3.org/2000/svg" xmlns:xlink="http://www.w3.org/1999/xlink"><linearGradient id="a" gradientUnits="userSpaceOnUse" x1="248" x2="248" y1="496" y2="0"><stop offset="0" stop-color="#9f2fff"/><stop offset="1" stop-color="#0bb1d3"/></linearGradient><path d="m352 328c0-13.230469 10.769531-24 24-24s24 10.769531 24 24v16h16v-16c0-22.054688-17.945312-40-40-40s-40 17.945312-40 40v32h-16v96h112v-96h-80zm64 112h-80v-64h80zm-32-32h-16v-16h16zm-296-360h-16v-16h16zm32 0h-16v-16h16zm-64 0h-16v-16h16zm-32 32h85.785156l50.214844 30.136719v-86.136719c0-13.230469-10.769531-24-24-24h-112c-13.230469 0-24 10.769531-24 24v32c0 13.230469 10.769531 24 24 24zm-8-56c0-4.414062 3.59375-8 8-8h112c4.40625 0 8 3.585938 8 8v57.863281l-29.785156-17.863281h-90.214844c-4.40625 0-8-3.585938-8-8zm456-24h-112c-13.230469 0-24 10.769531-24 24v86.136719l50.214844-30.136719h85.785156c13.230469 0 24-10.769531 24-24v-32c0-13.230469-10.769531-24-24-24zm8 56c0 4.414062-3.59375 8-8 8h-90.214844l-29.785156 17.863281v-57.863281c0-4.414062 3.59375-8 8-8h112c4.40625 0 8 3.585938 8 8zm-16 104c0-22.054688-17.945312-40-40-40h-352c-22.054688 0-40 17.945312-40 40v272c0 22.054688 17.945312 40 40 40h232.304688c20.03125 15 44.800781 24 71.695312 24 66.167969 0 120-53.832031 120-120 0-31.382812-12.207031-59.902344-32-81.3125zm-416 0c0-13.230469 10.769531-24 24-24h352c13.230469 0 24 10.769531 24 24v120.222656c-5.054688-3.816406-10.367188-7.292968-16-10.277344v-101.945312c0-8.824219-7.175781-16-16-16h-336c-8.824219 0-16 7.175781-16 16v224h-16zm144 248h68.464844c1.527344 5.496094 3.367187 10.847656 5.625 16h-66.089844c-4.40625 0-8-3.585938-8-8zm65.191406-16h-89.191406v-47.015625c0-11.03125 7.480469-20.609375 18.175781-23.289063l45.824219-11.449218v-17.046875c5.015625 1.785156 10.382812 2.800781 16 2.800781s10.984375-1.023438 16-2.800781v17.039062l10.183594 2.554688c-11.449219 18.382812-18.183594 40-18.183594 63.207031 0 5.441406.488281 10.753906 1.191406 16zm-9.191406-112c-17.648438 0-32-14.351562-32-32v-16c0-17.648438 14.351562-32 32-32s32 14.351562 32 32v16c0 17.648438-14.351562 32-32 32zm36.246094 18.816406-4.246094-1.054687v-14.082031c9.792969-8.792969 16-21.503907 16-35.679688v-16c0-26.472656-21.527344-48-48-48s-48 21.527344-48 48v16c0 14.167969 6.207031 26.878906 16 35.679688v14.074218l-33.703125 8.429688c-17.839844 4.457031-30.296875 20.410156-30.296875 38.800781v47.015625h-72v-224h336v95c-12.535156-4.449219-25.960938-7-40-7-36.785156 0-69.71875 16.671875-91.753906 42.816406zm-236.246094 133.183594v-24h128v8c0 13.230469 10.769531 24 24 24h74.664062c3.601563 5.679688 7.664063 11.015625 12.144532 16h-214.808594c-13.230469 0-24-10.769531-24-24zm328 48c-57.34375 0-104-46.65625-104-104s46.65625-104 104-104 104 46.65625 104 104-46.65625 104-104 104zm-8-448h16v16h-16zm32 0h64v16h-64zm-95.433594 7.433594c-15.109375-15.113282-35.199218-23.433594-56.566406-23.433594s-41.457031 8.320312-56.566406 23.433594l-11.3125-11.3125c18.136718-18.136719 42.238281-28.121094 67.878906-28.121094s49.742188 9.984375 67.878906 28.121094zm-22.621094 22.621094c-9.066406-9.0625-21.121093-14.054688-33.945312-14.054688s-24.878906 4.992188-33.9375 14.0625l-11.320312-11.308594c12.082031-12.097656 28.152343-18.753906 45.257812-18.753906 17.097656 0 33.167969 6.65625 45.257812 18.742188zm-11.3125 11.320312-11.320312 11.3125c-6.039062-6.046875-16.578125-6.046875-22.617188 0l-11.320312-11.3125c12.082031-12.09375 33.167969-12.09375 45.257812 0zm0 0" fill="url(#a)"/></svg>