<svg height="496pt" viewBox="0 0 496 496" width="496pt" xmlns="http://www.w3.org/2000/svg" xmlns:xlink="http://www.w3.org/1999/xlink"><linearGradient id="a" gradientUnits="userSpaceOnUse" x1="248" x2="248" y1="496" y2="0"><stop offset="0" stop-color="#9f2fff"/><stop offset="1" stop-color="#0bb1d3"/></linearGradient><path d="m192 400h16v16h-16zm0-16h16v-16h-16zm0-32h16v-16h-16zm8-136h-16c0 8.824219-7.175781 16-16 16s-16-7.175781-16-16h-16c0 17.648438 14.351562 32 32 32s32-14.351562 32-32zm-72-56c-4.414062 0-8 3.585938-8 8s3.585938 8 8 8 8-3.585938 8-8-3.585938-8-8-8zm80 16c4.414062 0 8-3.585938 8-8s-3.585938-8-8-8-8 3.585938-8 8 3.585938 8 8 8zm240 232v14.625c0 21.167969-15.855469 39.253906-36.105469 41.183594-1.269531.128906-2.542969.191406-3.816406.191406-9.933594 0-19.597656-3.6875-26.972656-10.390625-6.320313-5.753906-10.601563-13.363281-12.289063-21.609375h-17.625c-1.6875 8.246094-5.96875 15.855469-12.289062 21.609375-8.316406 7.558594-19.566406 11.292969-30.796875 10.199219-20.25-1.929688-36.105469-20.007813-36.105469-41.183594v-14.625c0-22.054688 17.945312-40 40-40h40v-8c0-13.230469 10.769531-24 24-24h16c4.414062 0 8-3.585938 8-8v-8h16v8c0 13.230469-10.769531 24-24 24h-16c-4.414062 0-8 3.585938-8 8v8h40c22.054688 0 40 17.945312 40 40zm-16 0c0-13.230469-10.769531-24-24-24h-96c-13.230469 0-24 10.769531-24 24v14.625c0 13.007812 9.496094 24.109375 21.617188 25.261719 6.925781.585937 13.460937-1.511719 18.519531-6.125 5-4.539063 7.863281-11.007813 7.863281-17.761719v-8h48v8c0 6.753906 2.863281 13.222656 7.855469 17.769531 5.066406 4.605469 11.609375 6.71875 18.519531 6.125 12.128906-1.160156 21.625-12.261719 21.625-25.269531zm-32 8h16v-16h-16zm-96 0h16v-16h-16zm192-88v128c0 22.054688-17.945312 40-40 40h-192c-22.054688 0-40-17.945312-40-40v-8h-224v-77.40625c0-24.144531 15.390625-45.496094 38.289062-53.121094l81.710938-27.242187v-16.574219c-19.96875-13.054688-34.28125-33.984375-38.574219-58.351562-18.097656-3.113282-31.769531-18.015626-33.128906-36.375-5.242187-7.832032-24.296875-39.808594-24.296875-90.929688v-10.246094l30.617188 7.652344-7.929688-63.429688 38.488281 7.703126-7.421875-29.679688h10.246094c68.585938 0 102.441406 12.832031 116.566406 20.527344l7.890625-14.984375 6.894531 3.191406c1.496094.691406 35.167969 16.90625 50.449219 76.890625l26.199219-8.730469v11.105469c0 54.441406-7.359375 86.304688-8.160156 89.609375-.777344 19.0625-14.871094 34.65625-33.265625 37.726563-4.300781 24.359374-18.613281 45.273437-38.574219 58.328124v16.574219l22.246094 7.417969c6.976562-5.9375 15.898437-9.65625 25.753906-9.65625h56v-46.441406l74.296875 46.441406h61.703125c22.054688 0 40 17.945312 40 40zm-224-152c0-10.414062-6.710938-19.214844-16-22.527344v45.046875c9.289062-3.304687 16-12.105469 16-22.519531zm-231.710938-77.679688c1.4375 25.367188 7.941407 44.792969 13.535157 57.199219 5.679687-9.449219 15.03125-16.441406 26.175781-18.710937v-30.945313l17.144531 10.289063c18.101563 10.855468 37.480469 19.085937 57.757813 24.550781-1.917969-6.71875-2.902344-13.71875-2.902344-20.703125v-14.136719l12.121094 7.273438c23.023437 13.816406 49.125 21.605469 75.878906 22.71875v-15.855469h16v16.808594c7.96875 1.625 15.054688 5.648437 20.542969 11.253906 1.519531-12.34375 2.945312-28.804688 3.34375-48.925781l-21.878907 7.296875-1.832031-8.792969c-8.855469-42.273437-27.433593-62.183594-37.222656-70.066406l-9.175781 17.417969-7.648438-7.144532c-.160156-.136718-23.960937-20.152344-103.839844-21.75l8.550782 34.214844-41.527344-8.289062 8.070312 64.570312zm39.710938 100.207032v-45.046875c-9.289062 3.304687-16 12.105469-16 22.519531s6.710938 19.214844 16 22.527344zm88 73.472656c39.703125 0 72-32.296875 72-72v-48.128906c-24.398438-.917969-48.320312-6.894532-70.238281-17.503906 1.0625 4.273437 2.582031 8.433593 4.550781 12.367187l8.160156 16.320313-16.039062-3.207032c-24.761719-4.953125-48.417969-13.648437-70.433594-25.871094v66.023438c0 39.703125 32.296875 72 72 72zm-32 9.886719v13.121093c3.6875 14.726563 16.847656 24.992188 32 24.992188 15.167969 0 28.328125-10.273438 31.992188-24.984375l.007812-.03125v-13.097656c-9.9375 3.898437-20.703125 6.113281-32 6.113281s-22.0625-2.214844-32-6.113281zm88 150.113281v-104c0-6.070312 1.464844-11.777344 3.894531-16.9375l-14.839843-4.949219c-6.519532 15.453125-20.503907 26.488281-37.054688 29.207031v80.679688h-16v-80.671875c-16.542969-2.71875-30.527344-13.753906-37.054688-29.207031l-79.59375 26.527344c-16.359374 5.457031-27.351562 20.703124-27.351562 37.945312v61.40625h48v-64h16v64zm256-104c0-13.230469-10.769531-24-24-24h-66.296875l-53.703125-33.558594v33.558594h-72c-13.230469 0-24 10.769531-24 24v128c0 13.230469 10.769531 24 24 24h192c13.230469 0 24-10.769531 24-24zm0 0" fill="url(#a)"/></svg>